<?xml version="1.0" encoding="UTF-8" standalone="no"?>
<!DOCTYPE svg PUBLIC "-//W3C//DTD SVG 1.1//EN" "http://www.w3.org/Graphics/SVG/1.1/DTD/svg11.dtd">
<svg width="100%" height="100%" viewBox="0 0 851 851" version="1.1" xmlns="http://www.w3.org/2000/svg" xmlns:xlink="http://www.w3.org/1999/xlink" xml:space="preserve" xmlns:serif="http://www.serif.com/" style="fill-rule:evenodd;clip-rule:evenodd;stroke-linejoin:round;stroke-miterlimit:2;">
    <g transform="matrix(1,0,0,1,0,425.195)">
        <circle cx="425.195" cy="0" r="425.195" style="fill:rgb(235,235,235);"/>
    </g>
    <g transform="matrix(3.691306,0,0,3.691306,-547.81478,-673.540659)">
        <path d="M314.93,246.15C308.21,239.43 300.34,234.13 291.57,230.41C282.82,226.7 273.41,224.82 263.6,224.82C253.91,224.82 244.53,226.73 235.72,230.48C226.89,234.25 219.05,239.53 212.41,246.16C205.78,252.89 200.5,260.81 196.73,269.69C192.97,278.54 191.06,288 191.06,297.81C191.06,307.61 192.94,317.02 196.65,325.78C200.37,334.55 205.67,342.42 212.41,349.15C219.05,355.79 226.89,361.07 235.72,364.83C244.52,368.59 253.9,370.49 263.6,370.49C274.45,370.49 284.67,368.22 294.27,363.67C300.08,360.91 303.77,355.03 303.77,348.6L303.77,348.28C303.77,338.74 293.57,332.97 285.18,337.51C283.86,338.22 282.49,338.88 281.09,339.47C275.6,341.79 269.71,342.97 263.61,342.97C257.5,342.97 251.64,341.79 246.19,339.46C240.76,337.14 235.93,333.84 231.85,329.64C227.7,325.49 224.43,320.62 222.16,315.18C219.89,309.75 218.75,303.9 218.75,297.79C218.75,291.69 219.9,285.84 222.16,280.4C224.42,274.97 227.69,270.09 231.88,265.91C236.06,261.72 240.94,258.45 246.37,256.19C251.81,253.92 257.6,252.77 263.6,252.77C269.69,252.77 275.6,253.95 281.15,256.26C286.69,258.58 291.56,261.82 295.64,265.9C299.74,270.11 302.94,274.98 305.2,280.39C307.42,285.71 308.56,291.43 308.61,297.39L308.66,297.39C308.66,360.92 307.03,362.36 313.78,367.54C316.07,369.3 318.78,370.16 322.06,370.16C326.06,370.16 329.3,368.79 331.95,365.98C334.79,363.14 336.13,359.88 336.13,355.94L336.13,297.79C336.13,287.88 334.25,278.39 330.54,269.58C326.83,260.8 321.58,252.9 314.93,246.15Z" style="fill:rgb(5,1,1);fill-rule:nonzero;"/>
    </g>
</svg>
