<?xml version="1.0" encoding="UTF-8" standalone="no"?>
<!DOCTYPE svg PUBLIC "-//W3C//DTD SVG 1.1//EN" "http://www.w3.org/Graphics/SVG/1.1/DTD/svg11.dtd">
<svg width="100%" height="100%" viewBox="0 0 851 851" version="1.1" xmlns="http://www.w3.org/2000/svg" xmlns:xlink="http://www.w3.org/1999/xlink" xml:space="preserve" xmlns:serif="http://www.serif.com/" style="fill-rule:evenodd;clip-rule:evenodd;stroke-linejoin:round;stroke-miterlimit:2;">
    <g transform="matrix(1,0,0,1,-5.62791,126)">
        <path d="M314.93,246.15C308.21,239.43 300.34,234.13 291.57,230.41C282.82,226.7 273.41,224.82 263.6,224.82C253.91,224.82 244.53,226.73 235.72,230.48C226.89,234.25 219.05,239.53 212.41,246.16C205.78,252.89 200.5,260.81 196.73,269.69C192.97,278.54 191.06,288 191.06,297.81C191.06,307.61 192.94,317.02 196.65,325.78C200.37,334.55 205.67,342.42 212.41,349.15C219.05,355.79 226.89,361.07 235.72,364.83C244.52,368.59 253.9,370.49 263.6,370.49C274.45,370.49 284.67,368.22 294.27,363.67C300.08,360.91 303.77,355.03 303.77,348.6L303.77,348.28C303.77,338.74 293.57,332.97 285.18,337.51C283.86,338.22 282.49,338.88 281.09,339.47C275.6,341.79 269.71,342.97 263.61,342.97C257.5,342.97 251.64,341.79 246.19,339.46C240.76,337.14 235.93,333.84 231.85,329.64C227.7,325.49 224.43,320.62 222.16,315.18C219.89,309.75 218.75,303.9 218.75,297.79C218.75,291.69 219.9,285.84 222.16,280.4C224.42,274.97 227.69,270.09 231.88,265.91C236.06,261.72 240.94,258.45 246.37,256.19C251.81,253.92 257.6,252.77 263.6,252.77C269.69,252.77 275.6,253.95 281.15,256.26C286.69,258.58 291.56,261.82 295.64,265.9C299.74,270.11 302.94,274.98 305.2,280.39C307.42,285.71 308.56,291.43 308.61,297.39L308.66,297.39C308.66,360.92 307.03,362.36 313.78,367.54C316.07,369.3 318.78,370.16 322.06,370.16C326.06,370.16 329.3,368.79 331.95,365.98C334.79,363.14 336.13,359.88 336.13,355.94L336.13,297.79C336.13,287.88 334.25,278.39 330.54,269.58C326.83,260.8 321.58,252.9 314.93,246.15Z" style="fill:rgb(5,1,1);fill-rule:nonzero;"/>
        <path d="M481.39,245.86C474.67,239.24 466.83,234.01 458.1,230.34C449.39,226.68 440,224.82 430.2,224.82C420.4,224.82 410.99,226.7 402.23,230.41C393.46,234.13 385.59,239.43 378.86,246.17C372.12,252.92 366.79,260.83 363.02,269.7C359.26,278.55 357.35,288.01 357.35,297.82C357.35,307.63 359.26,317.06 363.01,325.85C366.77,334.67 372.1,342.5 378.83,349.14C385.58,355.9 393.45,361.2 402.22,364.92C410.97,368.63 420.38,370.51 430.19,370.51C442.36,370.51 452.2,368 461.59,363.36C467.63,360.38 471.42,354.17 471.42,347.43C471.42,338.05 461.25,332.08 453.16,336.82C451.46,337.81 449.69,338.71 447.83,339.49C442.34,341.81 436.4,342.99 430.19,342.99C424.08,342.99 418.22,341.81 412.77,339.48C407.35,337.17 402.48,333.88 398.3,329.7C394.12,325.52 390.83,320.65 388.51,315.23C386.19,309.79 385.01,303.93 385.01,297.82C385.01,291.71 386.19,285.85 388.52,280.4C390.83,274.99 394.12,270.12 398.3,265.94C402.38,261.86 407.26,258.62 412.79,256.3C423.98,251.62 436.72,251.7 447.73,256.3C453.27,258.62 458.14,261.86 462.22,265.94C466.4,270.12 469.69,274.99 472.01,280.4C474.34,285.85 475.52,291.71 475.52,297.82L475.52,394.8C475.52,399.14 476.73,402.6 479.22,405.38C481.6,408.04 484.79,409.34 488.97,409.34C492.8,409.34 496.06,407.94 498.94,405.07C500.16,403.85 501.16,402.32 501.92,400.52C502.68,398.7 503.05,396.83 503.05,394.79L503.05,296.87C502.85,287.12 500.84,277.72 497.08,269C493.31,260.29 488.03,252.5 481.39,245.86Z" style="fill:rgb(5,1,1);fill-rule:nonzero;"/>
        <path d="M651.54,299.24C646.94,300.78 643.52,304.57 642.22,309.24C639.58,318.66 633.97,326.07 626.74,332.05C622.08,335.9 616.79,338.63 611.01,340.15C605.28,341.66 599.43,342.02 593.63,341.23C588.01,340.46 582.6,338.67 577.54,335.91C572.46,333.15 568.09,329.57 564.55,325.28C561.06,321.06 558.43,316.17 556.74,310.73C555.06,305.35 554.31,299.8 554.52,294.23C554.73,290.31 555.44,286.51 556.59,282.83C556.91,281.94 557.2,281.05 557.58,280.18C557.59,280.17 557.59,280.16 557.6,280.14C560,275.15 562.68,270.95 565.62,267.53C568.63,264.03 572.59,260.89 577.39,258.18C580.45,256.62 582.49,255.52 583.89,254.74C587.46,253.45 591.44,252.6 595.8,252.25C601.96,252.01 604.59,251.75 605.74,251.58C609.01,251.15 611.62,250.11 613.57,248.5C614.51,247.73 615.41,246.57 616.26,245.07C617.13,243.52 617.76,241.79 618.12,239.92C618.93,235.69 618.12,232.16 615.63,229.15C612.84,225.77 609.04,223.87 604.03,223.33C595.36,222.51 586.5,223.55 577.75,226.44C575.1,227.31 572.51,228.36 569.96,229.54C562.8,232.45 556.15,236.74 550.18,242.3C544.99,247.14 540.53,252.74 536.85,259C536.12,260.2 535.42,261.42 534.76,262.66C530.25,271.21 527.47,280.4 526.49,289.96C525.57,299.03 526.38,308.11 528.88,316.97C529,317.42 529.12,317.87 529.25,318.32C529.25,318.33 529.26,318.35 529.26,318.37C529.27,318.41 529.29,318.46 529.3,318.5C529.59,319.49 529.9,320.47 530.23,321.45C533.35,330.53 538.2,338.82 544.64,346.09C551.09,353.36 558.94,359.25 567.97,363.59C576.89,367.87 586.22,370.22 595.7,370.55C605.21,370.89 614.56,369.39 623.51,366.1C632.42,362.9 640.55,357.97 647.69,351.45C650.25,349.12 652.63,346.6 654.84,343.93C658.41,339.9 661.52,335.55 664.11,330.9C666.57,326.47 668.6,321.73 670.06,316.5C673.11,305.48 662.36,295.61 651.54,299.24Z" style="fill:rgb(5,1,1);fill-rule:nonzero;"/>
        <path d="M640.78,277.95C643.27,285.36 651.29,289.35 658.71,286.87C666.12,284.38 670.11,276.36 667.63,268.94C665.14,261.53 657.12,257.54 649.7,260.02C642.29,262.51 638.29,270.54 640.78,277.95Z" style="fill:rgb(5,1,1);fill-rule:nonzero;"/>
    </g>
</svg>
