<?xml version="1.0" encoding="UTF-8" standalone="no"?><!DOCTYPE svg PUBLIC "-//W3C//DTD SVG 1.1//EN" "http://www.w3.org/Graphics/SVG/1.1/DTD/svg11.dtd"><svg width="100%" height="100%" viewBox="0 0 2250 2250" version="1.1" xmlns="http://www.w3.org/2000/svg" xmlns:xlink="http://www.w3.org/1999/xlink" xml:space="preserve" xmlns:serif="http://www.serif.com/" style="fill-rule:evenodd;clip-rule:evenodd;stroke-linejoin:round;stroke-miterlimit:2;"><g><path d="M512.511,1249.42l-0,173.974l514.54,-433.279l-0,-173.974l-514.54,433.279Z"/><path d="M512.511,1563.52l-0,173.974l373.006,-314.098l-0,-173.974l-373.006,314.098Z"/><path d="M512.511,945.79l-0,173.974l514.54,-433.279l-0,-173.974l-514.54,433.279Z"/><path d="M1027.05,512.511l-0,173.974l277.136,101.623l-0,358.941l145.735,53.439l-0,-532.915l-422.871,-155.062"/><path d="M512.511,1119.76l514.54,-433.279l277.136,101.623l-0,407.87l145.735,53.439l-0,-581.844l-422.871,-155.062l-514.54,433.279l-0,173.974"/><path d="M1591.71,718.976l145.775,53.302l0,965.211l-145.775,-53.439l0,-965.074Z"/></g></svg>
